<svg width="151" height="157" viewBox="0 0 151 157" fill="none" xmlns="http://www.w3.org/2000/svg">
<rect x="0.5" y="0.5" width="150" height="156" rx="11.5" stroke="#E5E7EB"/>
<path d="M1 0H150V31H1V0Z" fill="white" fill-opacity="0.7"/>
<path d="M20.474 12.514H22.28C22.28 13.522 22.2007 14.4833 22.042 15.398C21.8927 16.3127 21.6127 17.1807 21.202 18.002C20.7913 18.8233 20.208 19.5933 19.452 20.312C18.696 21.0307 17.7113 21.698 16.498 22.314L15.504 20.886C16.512 20.382 17.338 19.8453 17.982 19.276C18.6353 18.6973 19.1393 18.0813 19.494 17.428C19.858 16.7653 20.11 16.0467 20.25 15.272C20.3993 14.4973 20.474 13.6573 20.474 12.752V12.514ZM16.316 12.514H21.566V13.998H16.316V12.514ZM20.516 15.692V17.12L15.868 17.568L15.63 15.986L20.516 15.692ZM23.848 11.254H25.724V24.218H23.848V11.254ZM25.248 16.224H27.53V17.75H25.248V16.224ZM29.8249 17.26H38.9389V18.73H29.8249V17.26ZM28.4529 21.166H40.1989V22.678H28.4529V21.166ZM29.8249 12.332H38.8409V13.844H31.6729V17.876H29.8249V12.332ZM48.731 23.1392C48.2073 23.1359 47.7019 23.0481 47.2147 22.8757C46.7308 22.7034 46.2966 22.4233 45.9121 22.0355C45.5276 21.6477 45.2227 21.134 44.9973 20.4943C44.7753 19.8546 44.6642 19.0691 44.6642 18.1378C44.6676 17.2827 44.7653 16.5187 44.9576 15.8459C45.1531 15.1697 45.4315 14.5964 45.7928 14.1257C46.1574 13.6551 46.5932 13.2971 47.1003 13.0518C47.6074 12.8033 48.1758 12.679 48.8056 12.679C49.485 12.679 50.0849 12.8116 50.6053 13.0767C51.1257 13.3385 51.5433 13.6948 51.8581 14.1456C52.1763 14.5964 52.3685 15.1018 52.4348 15.6619H50.312C50.2291 15.3073 50.0551 15.0289 49.79 14.8267C49.5248 14.6245 49.1967 14.5234 48.8056 14.5234C48.1427 14.5234 47.6389 14.8118 47.2942 15.3885C46.9528 15.9652 46.7788 16.7491 46.7722 17.7401H46.8418C46.9943 17.4384 47.1998 17.1816 47.4583 16.9695C47.7201 16.754 48.0167 16.59 48.3482 16.4773C48.6829 16.3613 49.0359 16.3033 49.4071 16.3033C50.0104 16.3033 50.5473 16.4458 51.0179 16.7308C51.4886 17.0125 51.8598 17.4003 52.1316 17.8942C52.4034 18.388 52.5392 18.9531 52.5392 19.5895C52.5392 20.2789 52.3785 20.892 52.057 21.429C51.7388 21.9659 51.293 22.3868 50.7196 22.6918C50.1496 22.9934 49.4867 23.1425 48.731 23.1392ZM48.7211 21.4489C49.0525 21.4489 49.3491 21.3693 49.611 21.2102C49.8728 21.0511 50.0783 20.8357 50.2275 20.5639C50.3766 20.2921 50.4512 19.9872 50.4512 19.6491C50.4512 19.3111 50.3766 19.0078 50.2275 18.7393C50.0816 18.4709 49.8794 18.2571 49.6209 18.098C49.3624 17.9389 49.0674 17.8594 48.736 17.8594C48.4874 17.8594 48.257 17.9058 48.0449 17.9986C47.8361 18.0914 47.6522 18.2206 47.4931 18.3864C47.3373 18.5521 47.2147 18.7443 47.1252 18.9631C47.0357 19.1785 46.9909 19.4089 46.9909 19.6541C46.9909 19.9822 47.0655 20.2822 47.2147 20.554C47.3671 20.8258 47.5726 21.0429 47.8311 21.2053C48.093 21.3677 48.3896 21.4489 48.7211 21.4489ZM63.1382 11.268H64.9022V24.232H63.1382V11.268ZM61.4862 16.154H63.6422V17.652H61.4862V16.154ZM57.6222 12.864H59.4142C59.4142 13.7787 59.3349 14.6467 59.1762 15.468C59.0269 16.2893 58.7749 17.0687 58.4202 17.806C58.0656 18.534 57.5849 19.2153 56.9782 19.85C56.3809 20.4753 55.6296 21.054 54.7242 21.586L53.6462 20.284C54.6262 19.7053 55.4056 19.0707 55.9842 18.38C56.5722 17.68 56.9922 16.91 57.2442 16.07C57.4962 15.2207 57.6222 14.278 57.6222 13.242V12.864ZM54.2902 12.864H58.1682V14.348H54.2902V12.864ZM60.2542 11.604H62.0042V23.672H60.2542V11.604Z" fill="black"/>
<rect width="149" height="126" transform="translate(1 31)" fill="white" fill-opacity="0.7"/>
<rect x="15.5" y="42.5" width="120" height="97" rx="9.5" fill="#F8FAFC"/>
<rect x="15.5" y="42.5" width="120" height="97" rx="9.5" stroke="#E5E7EB"/>
<rect x="25" y="51" width="31" height="23" rx="3" fill="#C9C9C9"/>
<rect x="60" y="51" width="31" height="23" rx="3" fill="#C9C9C9"/>
<rect x="95" y="51" width="31" height="23" rx="3" fill="#C9C9C9"/>
<rect x="95" y="79" width="31" height="23" rx="3" fill="#C9C9C9"/>
<rect x="25" y="79" width="66" height="23" rx="3" fill="#C9C9C9"/>
<rect x="25" y="107" width="101" height="23" rx="3" fill="#C9C9C9"/>
</svg>
