<svg width="151" height="157" viewBox="0 0 151 157" fill="none" xmlns="http://www.w3.org/2000/svg">
<rect x="0.5" y="0.5" width="150" height="156" rx="11.5" stroke="#D1D5DB" stroke-width="1.5"/>
<path d="M1 0H150V31H1V0Z" fill="white" fill-opacity="0.7"/>
<line x1="1" y1="33" x2="150" y2="33" stroke="#5d5d5dff" stroke-width="1"/>
<path d="M20.474 12.514H22.28C22.28 13.522 22.2007 14.4833 22.042 15.398C21.8927 16.3127 21.6127 17.1807 21.202 18.002C20.7913 18.8233 20.208 19.5933 19.452 20.312C18.696 21.0307 17.7113 21.698 16.498 22.314L15.504 20.886C16.512 20.382 17.338 19.8453 17.982 19.276C18.6353 18.6973 19.1393 18.0813 19.494 17.428C19.858 16.7653 20.11 16.0467 20.25 15.272C20.3993 14.4973 20.474 13.6573 20.474 12.752V12.514ZM16.316 12.514H21.566V13.998H16.316V12.514ZM20.516 15.692V17.12L15.868 17.568L15.63 15.986L20.516 15.692ZM23.848 11.254H25.724V24.218H23.848V11.254ZM25.248 16.224H27.53V17.75H25.248V16.224ZM29.8249 17.26H38.9389V18.73H29.8249V17.26ZM28.4529 21.166H40.1989V22.678H28.4529V21.166ZM29.8249 12.332H38.8409V13.844H31.6729V17.876H29.8249V12.332ZM45.226 23L49.4469 14.6477V14.5781H44.53V12.8182H51.6742V14.603L47.4483 23H45.226ZM62.2222 11.268H63.9862V24.232H62.2222V11.268ZM60.5702 16.154H62.7262V17.652H60.5702V16.154ZM56.7062 12.864H58.4982C58.4982 13.7787 58.4189 14.6467 58.2602 15.468C58.1109 16.2893 57.8589 17.0687 57.5042 17.806C57.1496 18.534 56.6689 19.2153 56.0622 19.85C55.4649 20.4753 54.7136 21.054 53.8082 21.586L52.7302 20.284C53.7102 19.7053 54.4896 19.0707 55.0682 18.38C55.6562 17.68 56.0762 16.91 56.3282 16.07C56.5802 15.2207 56.7062 14.278 56.7062 13.242V12.864ZM53.3742 12.864H57.2522V14.348H53.3742V12.864ZM59.3382 11.604H61.0882V23.672H59.3382V11.604Z" fill="black"/>
<rect width="149" height="126" transform="translate(1 31)" fill="white" fill-opacity="0.7"/>
<rect x="15.5" y="42.5" width="120" height="97" rx="9.5" fill="#F8FAFC"/>
<rect x="15.5" y="42.5" width="120" height="97" rx="9.5" stroke="#D1D5DB" stroke-width="1.5"/>
<rect x="25" y="51" width="31" height="23" rx="3" fill="#7F81F2"/>
<rect x="60" y="51" width="31" height="23" rx="3" fill="#7F81F2"/>
<rect x="95" y="51" width="31" height="23" rx="3" fill="#7F81F2"/>
<rect x="95" y="79" width="31" height="23" rx="3" fill="#7F81F2"/>
<rect x="95" y="107" width="31" height="23" rx="3" fill="#7F81F2"/>
<rect x="25" y="79" width="66" height="23" rx="3" fill="#7F81F2"/>
<rect x="25" y="107" width="66" height="23" rx="3" fill="#7F81F2"/>
</svg>


