<svg width="151" height="157" viewBox="0 0 151 157" fill="none" xmlns="http://www.w3.org/2000/svg">
<rect x="0.5" y="0.5" width="150" height="156" rx="11.5" stroke="#E5E7EB"/>
<path d="M1 0H150V31H1V0Z" fill="white" fill-opacity="0.7"/>
<path d="M20.474 12.514H22.28C22.28 13.522 22.2007 14.4833 22.042 15.398C21.8927 16.3127 21.6127 17.1807 21.202 18.002C20.7913 18.8233 20.208 19.5933 19.452 20.312C18.696 21.0307 17.7113 21.698 16.498 22.314L15.504 20.886C16.512 20.382 17.338 19.8453 17.982 19.276C18.6353 18.6973 19.1393 18.0813 19.494 17.428C19.858 16.7653 20.11 16.0467 20.25 15.272C20.3993 14.4973 20.474 13.6573 20.474 12.752V12.514ZM16.316 12.514H21.566V13.998H16.316V12.514ZM20.516 15.692V17.12L15.868 17.568L15.63 15.986L20.516 15.692ZM23.848 11.254H25.724V24.218H23.848V11.254ZM25.248 16.224H27.53V17.75H25.248V16.224ZM29.8249 17.26H38.9389V18.73H29.8249V17.26ZM28.4529 21.166H40.1989V22.678H28.4529V21.166ZM29.8249 12.332H38.8409V13.844H31.6729V17.876H29.8249V12.332ZM48.5073 12.679C49.031 12.679 49.5347 12.7668 50.0186 12.9425C50.5059 13.1181 50.94 13.3982 51.3212 13.7827C51.7057 14.1671 52.0089 14.6776 52.231 15.3139C52.4564 15.947 52.5707 16.7242 52.574 17.6456C52.574 18.5107 52.4763 19.2829 52.2807 19.9624C52.0885 20.6385 51.8117 21.2135 51.4505 21.6875C51.0892 22.1615 50.6534 22.5227 50.1429 22.7713C49.6325 23.0166 49.0624 23.1392 48.4327 23.1392C47.7533 23.1392 47.1534 23.0083 46.633 22.7464C46.1126 22.4813 45.6934 22.1217 45.3752 21.6676C45.0603 21.2102 44.8697 20.6965 44.8034 20.1264H46.9263C47.0092 20.4976 47.1832 20.786 47.4483 20.9915C47.7135 21.1937 48.0416 21.2947 48.4327 21.2947C49.0956 21.2947 49.5994 21.0064 49.9441 20.4297C50.2888 19.8497 50.4628 19.0559 50.4661 18.0483H50.3965C50.244 18.3466 50.0385 18.6035 49.78 18.8189C49.5215 19.031 49.2248 19.1951 48.8901 19.3111C48.5587 19.4271 48.2057 19.4851 47.8311 19.4851C47.2312 19.4851 46.696 19.3442 46.2253 19.0625C45.7547 18.7808 45.3835 18.393 45.1117 17.8991C44.8399 17.4053 44.704 16.8419 44.704 16.2088C44.7007 15.526 44.8581 14.9179 45.1763 14.3842C45.4945 13.8506 45.9386 13.433 46.5087 13.1314C47.0821 12.8265 47.7483 12.6757 48.5073 12.679ZM48.5222 14.3693C48.1874 14.3693 47.8891 14.4489 47.6273 14.608C47.3688 14.767 47.1633 14.9808 47.0108 15.2493C46.8617 15.5178 46.7888 15.8177 46.7921 16.1491C46.7921 16.4839 46.865 16.7855 47.0108 17.054C47.16 17.3191 47.3622 17.5312 47.6174 17.6903C47.8759 17.8461 48.1709 17.924 48.5023 17.924C48.7509 17.924 48.9812 17.8776 49.1934 17.7848C49.4055 17.692 49.5894 17.5644 49.7452 17.402C49.9043 17.2363 50.0286 17.0457 50.1181 16.8303C50.2076 16.6148 50.2523 16.3861 50.2523 16.1442C50.249 15.8227 50.1728 15.5277 50.0236 15.2592C49.8745 14.9908 49.669 14.7753 49.4071 14.6129C49.1453 14.4505 48.8503 14.3693 48.5222 14.3693ZM63.1382 11.268H64.9022V24.232H63.1382V11.268ZM61.4862 16.154H63.6422V17.652H61.4862V16.154ZM57.6222 12.864H59.4142C59.4142 13.7787 59.3349 14.6467 59.1762 15.468C59.0269 16.2893 58.7749 17.0687 58.4202 17.806C58.0656 18.534 57.5849 19.2153 56.9782 19.85C56.3809 20.4753 55.6296 21.054 54.7242 21.586L53.6462 20.284C54.6262 19.7053 55.4056 19.0707 55.9842 18.38C56.5722 17.68 56.9922 16.91 57.2442 16.07C57.4962 15.2207 57.6222 14.278 57.6222 13.242V12.864ZM54.2902 12.864H58.1682V14.348H54.2902V12.864ZM60.2542 11.604H62.0042V23.672H60.2542V11.604Z" fill="black"/>
<rect width="149" height="126" transform="translate(1 31)" fill="white" fill-opacity="0.7"/>
<rect x="15.5" y="42.5" width="120" height="97" rx="9.5" fill="#F8FAFC"/>
<rect x="15.5" y="42.5" width="120" height="97" rx="9.5" stroke="#E5E7EB"/>
<rect x="26" y="51" width="30" height="22" rx="3" fill="#C9C9C9"/>
<rect x="26" y="80" width="30" height="22" rx="3" fill="#C9C9C9"/>
<rect x="26" y="109" width="30" height="22" rx="3" fill="#C9C9C9"/>
<rect x="61" y="51" width="31" height="22" rx="3" fill="#C9C9C9"/>
<rect x="61" y="80" width="31" height="22" rx="3" fill="#C9C9C9"/>
<rect x="61" y="109" width="31" height="22" rx="3" fill="#C9C9C9"/>
<rect x="97" y="51" width="30" height="22" rx="3" fill="#C9C9C9"/>
<rect x="97" y="80" width="30" height="22" rx="3" fill="#C9C9C9"/>
<rect x="97" y="109" width="30" height="22" rx="3" fill="#C9C9C9"/>
</svg>
