<svg width="151" height="157" viewBox="0 0 151 157" fill="none" xmlns="http://www.w3.org/2000/svg">
<rect x="0.5" y="0.5" width="150" height="156" rx="11.5" stroke="#E5E7EB"/>
<path d="M1 0H150V31H1V0Z" fill="white" fill-opacity="0.7"/>
<path d="M17.6399 23H15.3331L18.848 12.8182H21.6222L25.1321 23H22.8253L20.2749 15.1449H20.1953L17.6399 23ZM17.4957 18.9979H22.9446V20.6783H17.4957V18.9979ZM28.4357 12.8182V23H26.3178V12.8182H28.4357ZM32.2502 12.8182V23H30.1323V12.8182H32.2502ZM46.2104 16.3828H44.0328C43.9931 16.1011 43.9119 15.8509 43.7892 15.6321C43.6666 15.41 43.5092 15.2211 43.3169 15.0653C43.1247 14.9096 42.9026 14.7902 42.6507 14.7074C42.4022 14.6245 42.132 14.5831 41.8404 14.5831C41.3134 14.5831 40.8543 14.714 40.4632 14.9759C40.0721 15.2344 39.7689 15.6122 39.5534 16.1094C39.338 16.6032 39.2303 17.2031 39.2303 17.9091C39.2303 18.6349 39.338 19.2448 39.5534 19.7386C39.7722 20.2325 40.0771 20.6054 40.4682 20.8572C40.8593 21.1091 41.3117 21.2351 41.8255 21.2351C42.1138 21.2351 42.3806 21.197 42.6259 21.1207C42.8745 21.0445 43.0949 20.9335 43.2871 20.7876C43.4793 20.6385 43.6384 20.4579 43.7644 20.2457C43.8936 20.0336 43.9831 19.7917 44.0328 19.5199L46.2104 19.5298C46.1541 19.9972 46.0132 20.4479 45.7878 20.8821C45.5658 21.313 45.2658 21.6991 44.888 22.0405C44.5134 22.3786 44.066 22.647 43.5456 22.8459C43.0286 23.0414 42.4436 23.1392 41.7907 23.1392C40.8825 23.1392 40.0705 22.9337 39.3546 22.5227C38.642 22.1117 38.0785 21.5168 37.6642 20.7379C37.2533 19.959 37.0478 19.0161 37.0478 17.9091C37.0478 16.7988 37.2566 15.8542 37.6742 15.0753C38.0918 14.2964 38.6586 13.7031 39.3745 13.2955C40.0904 12.8845 40.8958 12.679 41.7907 12.679C42.3806 12.679 42.9275 12.7618 43.4313 12.9276C43.9384 13.0933 44.3875 13.3352 44.7786 13.6534C45.1697 13.9683 45.4879 14.3544 45.7331 14.8118C45.9817 15.2692 46.1408 15.7929 46.2104 16.3828ZM52.6113 19.7486V15.3636H54.7292V23H52.6958V21.6129H52.6163C52.444 22.0604 52.1573 22.42 51.7562 22.6918C51.3585 22.9635 50.8729 23.0994 50.2995 23.0994C49.7891 23.0994 49.34 22.9834 48.9522 22.7514C48.5645 22.5194 48.2612 22.1896 48.0424 21.7621C47.827 21.3345 47.7176 20.8224 47.7143 20.2259V15.3636H49.8322V19.848C49.8355 20.2988 49.9565 20.6551 50.1951 20.9169C50.4338 21.1787 50.7536 21.3097 51.1547 21.3097C51.4099 21.3097 51.6485 21.2517 51.8706 21.1357C52.0926 21.0163 52.2716 20.8407 52.4075 20.6087C52.5467 20.3767 52.6146 20.09 52.6113 19.7486ZM62.777 17.5412L60.8381 17.6605C60.8049 17.4948 60.7337 17.3456 60.6243 17.2131C60.5149 17.0772 60.3707 16.9695 60.1918 16.8899C60.0161 16.8071 59.8056 16.7656 59.5604 16.7656C59.2322 16.7656 58.9555 16.8352 58.7301 16.9744C58.5047 17.1103 58.392 17.2926 58.392 17.5213C58.392 17.7036 58.465 17.8577 58.6108 17.9837C58.7566 18.1096 59.0069 18.2107 59.3615 18.2869L60.7436 18.5653C61.486 18.7178 62.0395 18.9631 62.4041 19.3011C62.7687 19.6392 62.951 20.0833 62.951 20.6335C62.951 21.134 62.8035 21.5732 62.5085 21.951C62.2169 22.3288 61.8158 22.6238 61.3054 22.8359C60.7983 23.0447 60.2133 23.1491 59.5504 23.1491C58.5395 23.1491 57.7341 22.9387 57.1342 22.5178C56.5376 22.0935 56.188 21.5168 56.0852 20.7876L58.1683 20.6783C58.2313 20.9865 58.3838 21.2218 58.6257 21.3842C58.8677 21.5433 59.1776 21.6229 59.5554 21.6229C59.9266 21.6229 60.2249 21.5516 60.4503 21.4091C60.679 21.2633 60.795 21.076 60.7983 20.8473C60.795 20.6551 60.7138 20.4976 60.5547 20.375C60.3956 20.2491 60.1503 20.1529 59.8189 20.0866L58.4964 19.8232C57.7507 19.674 57.1955 19.4155 56.831 19.0476C56.4697 18.6797 56.2891 18.2107 56.2891 17.6406C56.2891 17.1501 56.4216 16.7275 56.6868 16.3729C56.9553 16.0182 57.3314 15.7448 57.8153 15.5526C58.3026 15.3603 58.8726 15.2642 59.5256 15.2642C60.4901 15.2642 61.2491 15.468 61.8026 15.8757C62.3594 16.2834 62.6842 16.8385 62.777 17.5412ZM68.3464 15.3636V16.9545H63.7477V15.3636H68.3464ZM64.7917 13.5341H66.9096V20.6534C66.9096 20.849 66.9395 21.0014 66.9991 21.1108C67.0588 21.2169 67.1416 21.2914 67.2477 21.3345C67.3571 21.3776 67.483 21.3991 67.6255 21.3991C67.725 21.3991 67.8244 21.3909 67.9238 21.3743C68.0233 21.3544 68.0995 21.3395 68.1525 21.3295L68.4856 22.9055C68.3796 22.9387 68.2304 22.9768 68.0382 23.0199C67.8459 23.0663 67.6123 23.0945 67.3372 23.1044C66.8268 23.1243 66.3793 23.0563 65.9949 22.9006C65.6137 22.7448 65.3171 22.5028 65.1049 22.1747C64.8928 21.8466 64.7884 21.4323 64.7917 20.9318V13.5341ZM73.0943 23.1491C72.322 23.1491 71.6542 22.9851 71.0907 22.657C70.5306 22.3255 70.0981 21.8648 69.7931 21.2749C69.4882 20.6816 69.3358 19.9938 69.3358 19.2116C69.3358 18.4228 69.4882 17.7334 69.7931 17.1435C70.0981 16.5502 70.5306 16.0895 71.0907 15.7614C71.6542 15.4299 72.322 15.2642 73.0943 15.2642C73.8665 15.2642 74.5327 15.4299 75.0929 15.7614C75.6563 16.0895 76.0905 16.5502 76.3954 17.1435C76.7003 17.7334 76.8528 18.4228 76.8528 19.2116C76.8528 19.9938 76.7003 20.6816 76.3954 21.2749C76.0905 21.8648 75.6563 22.3255 75.0929 22.657C74.5327 22.9851 73.8665 23.1491 73.0943 23.1491ZM73.1042 21.5085C73.4556 21.5085 73.7489 21.4091 73.9842 21.2102C74.2195 21.008 74.3968 20.733 74.5162 20.3849C74.6388 20.0369 74.7001 19.6409 74.7001 19.1967C74.7001 18.7526 74.6388 18.3565 74.5162 18.0085C74.3968 17.6605 74.2195 17.3854 73.9842 17.1832C73.7489 16.9811 73.4556 16.88 73.1042 16.88C72.7496 16.88 72.4513 16.9811 72.2093 17.1832C71.9707 17.3854 71.7901 17.6605 71.6674 18.0085C71.5481 18.3565 71.4885 18.7526 71.4885 19.1967C71.4885 19.6409 71.5481 20.0369 71.6674 20.3849C71.7901 20.733 71.9707 21.008 72.2093 21.2102C72.4513 21.4091 72.7496 21.5085 73.1042 21.5085ZM78.2299 23V15.3636H80.2484V16.7109H80.3379C80.497 16.2635 80.7621 15.9105 81.1333 15.652C81.5046 15.3935 81.9487 15.2642 82.4657 15.2642C82.9894 15.2642 83.4352 15.3951 83.8031 15.657C84.171 15.9155 84.4163 16.2668 84.5389 16.7109H84.6184C84.7742 16.2734 85.0559 15.9238 85.4636 15.6619C85.8746 15.3968 86.3601 15.2642 86.9203 15.2642C87.6329 15.2642 88.2112 15.4912 88.6554 15.9453C89.1028 16.3961 89.3265 17.0357 89.3265 17.8643V23H87.2136V18.282C87.2136 17.8577 87.1009 17.5395 86.8755 17.3274C86.6502 17.1153 86.3684 17.0092 86.0304 17.0092C85.6459 17.0092 85.3459 17.1319 85.1305 17.3771C84.9151 17.6191 84.8074 17.9389 84.8074 18.3366V23H82.7541V18.2372C82.7541 17.8627 82.6464 17.5644 82.4309 17.3423C82.2188 17.1203 81.9387 17.0092 81.5907 17.0092C81.3554 17.0092 81.1433 17.0689 80.9544 17.1882C80.7688 17.3042 80.6213 17.4683 80.5119 17.6804C80.4025 17.8892 80.3478 18.1345 80.3478 18.4162V23H78.2299Z" fill="black"/>
<rect width="149" height="126" transform="translate(1 31)" fill="white" fill-opacity="0.7"/>
<rect x="15.5" y="42.5" width="120" height="97" rx="9.5" fill="#F8FAFC"/>
<rect x="15.5" y="42.5" width="120" height="97" rx="9.5" stroke="#E5E7EB"/>
<rect x="25" y="53" width="101" height="77" rx="3" fill="#C9C9C9"/>
</svg>
