<svg width="144" height="73" viewBox="0 0 144 73" fill="none" xmlns="http://www.w3.org/2000/svg">
<path d="M0.480469 43.8204C1.45313 40.3914 2.42613 36.9629 3.39879 36.957C4.37178 36.9516 5.34444 36.9543 6.31711 36.9489C7.2901 36.9431 8.26277 36.6867 9.23543 36.2503C10.2084 35.8144 11.1811 34.9795 12.1541 34.3305C13.1267 33.6815 14.0994 33.6725 15.0724 32.3561C16.0451 31.0401 17.0177 24.2196 17.9907 24.2196C18.9634 24.2196 19.9364 24.3699 20.909 24.6696C21.8817 24.9697 22.8547 28.0936 23.8274 29.1821C24.8004 30.2711 25.773 31.2021 26.7457 31.2021C27.7187 31.2021 28.6913 28.4627 29.664 28.4627C30.637 28.4627 31.6097 33.8521 32.5826 33.8521C33.5553 33.8521 34.528 30.4602 35.501 30.4602C36.4736 30.4602 37.4463 32.6232 38.4193 33.3196C39.392 34.0155 40.3649 33.8038 41.3376 34.6365C42.3103 35.4691 43.2833 36.8117 44.2559 38.3155C45.2289 39.8192 46.2016 43.6588 47.1743 43.6588C48.1472 43.6588 49.1199 42.8948 50.0926 42.8948C51.0656 42.8948 52.0382 44.3019 53.0112 45.9803C53.9839 47.6587 54.9565 51.2059 55.9295 52.9655C56.9022 54.7247 57.8749 56.5362 58.8479 56.5362C59.8205 56.5362 60.7935 52.655 61.7662 52.4934C62.7388 52.3319 63.7118 52.2511 64.6845 52.2511C65.6575 52.2511 66.6302 56.3191 67.6028 57.5241C68.5758 58.729 69.5485 59.48 70.5211 59.48C71.4941 59.48 72.4668 57.8445 73.4398 56.3904C74.4125 54.9363 75.3851 50.755 76.3581 50.755C77.3308 50.755 78.3034 54.305 79.2764 54.305C80.2491 54.305 81.2221 46.2615 82.1947 46.2615C83.1674 46.2615 84.1404 51.5408 85.1131 51.5408C86.0861 51.5408 87.0587 44.9229 88.0314 44.9229C89.0044 44.9229 89.9771 46.7019 90.9497 46.7019C91.9227 46.7019 92.8954 38.6287 93.8684 37.1538C94.841 35.6794 95.8137 34.942 96.7867 34.942C97.7593 34.942 98.732 35.9425 99.705 35.9425C100.678 35.9425 101.651 33.1138 102.623 32.0921C103.596 31.0703 104.569 30.8424 105.542 29.8126C106.515 28.7827 107.487 25.9124 108.46 25.9124C109.433 25.9124 110.406 26.2008 111.378 26.2143C112.351 26.2283 113.324 26.2351 114.297 26.2351C115.27 26.2351 116.242 23.1636 117.215 23.1636C118.188 23.1636 119.161 27.9194 120.134 29.6469C121.106 31.3745 122.079 33.5294 123.052 33.5294C124.025 33.5294 124.998 32.2283 125.97 32.2283C126.943 32.2283 127.916 34.7236 128.889 34.9501C129.862 35.1767 130.834 35.0634 131.807 35.29C132.78 35.5165 133.753 39.5218 134.725 39.5218C135.698 39.5218 136.671 38.7582 137.644 38.7582C138.616 38.7582 139.589 39.8282 140.562 41.6623C141.535 43.4959 142.508 46.6288 143.48 49.7613V72.4999C142.508 72.4999 141.535 72.4999 140.562 72.4999C139.589 72.4999 138.616 72.4999 137.644 72.4999C136.671 72.4999 135.698 72.4999 134.725 72.4999C133.753 72.4999 132.78 72.4999 131.807 72.4999C130.834 72.4999 129.862 72.4999 128.889 72.4999C127.916 72.4999 126.943 72.4999 125.97 72.4999C124.998 72.4999 124.025 72.4999 123.052 72.4999C122.079 72.4999 121.106 72.4999 120.134 72.4999C119.161 72.4999 118.188 72.4999 117.215 72.4999C116.242 72.4999 115.27 72.4999 114.297 72.4999C113.324 72.4999 112.351 72.4999 111.378 72.4999C110.406 72.4999 109.433 72.4999 108.46 72.4999C107.487 72.4999 106.515 72.4999 105.542 72.4999C104.569 72.4999 103.596 72.4999 102.623 72.4999C101.651 72.4999 100.678 72.4999 99.705 72.4999C98.732 72.4999 97.7593 72.4999 96.7867 72.4999C95.8137 72.4999 94.841 72.4999 93.8684 72.4999C92.8954 72.4999 91.9227 72.4999 90.9497 72.4999C89.9771 72.4999 89.0044 72.4999 88.0314 72.4999C87.0587 72.4999 86.0861 72.4999 85.1131 72.4999C84.1404 72.4999 83.1674 72.4999 82.1947 72.4999C81.2221 72.4999 80.2491 72.4999 79.2764 72.4999C78.3034 72.4999 77.3308 72.4999 76.3581 72.4999C75.3851 72.4999 74.4125 72.4999 73.4398 72.4999C72.4668 72.4999 71.4941 72.4999 70.5211 72.4999C69.5485 72.4999 68.5758 72.4999 67.6028 72.4999C66.6302 72.4999 65.6575 72.4999 64.6845 72.4999C63.7118 72.4999 62.7388 72.4999 61.7662 72.4999C60.7935 72.4999 59.8205 72.4999 58.8479 72.4999C57.8749 72.4999 56.9022 72.4999 55.9295 72.4999C54.9565 72.4999 53.9839 72.4999 53.0112 72.4999C52.0382 72.4999 51.0656 72.4999 50.0926 72.4999C49.1199 72.4999 48.1472 72.4999 47.1743 72.4999C46.2016 72.4999 45.2289 72.4999 44.2559 72.4999C43.2833 72.4999 42.3103 72.4999 41.3376 72.4999C40.3649 72.4999 39.392 72.4999 38.4193 72.4999C37.4463 72.4999 36.4736 72.4999 35.501 72.4999C34.528 72.4999 33.5553 72.4999 32.5826 72.4999C31.6097 72.4999 30.637 72.4999 29.664 72.4999C28.6913 72.4999 27.7187 72.4999 26.7457 72.4999C25.773 72.4999 24.8004 72.4999 23.8274 72.4999C22.8547 72.4999 21.8817 72.4999 20.909 72.4999C19.9364 72.4999 18.9634 72.4999 17.9907 72.4999C17.0177 72.4999 16.0451 72.4999 15.0724 72.4999C14.0994 72.4999 13.1267 72.4999 12.1541 72.4999C11.1811 72.4999 10.2084 72.4999 9.23543 72.4999C8.26277 72.4999 7.2901 72.4999 6.31711 72.4999C5.34444 72.4999 4.37178 72.4999 3.39879 72.4999C2.42613 72.4999 1.45313 72.4999 0.480469 72.4999V43.8204Z" fill="#888888" fill-opacity="0.6"/>
<path d="M0.480469 43.8204C1.45313 40.3914 2.42613 36.9629 3.39879 36.9571C4.37178 36.9516 5.34444 36.9543 6.31711 36.9489C7.2901 36.9431 8.26277 36.6867 9.23543 36.2503C10.2084 35.8144 11.1811 34.9795 12.1541 34.3305C13.1267 33.6815 14.0994 33.6725 15.0724 32.3561C16.0451 31.0401 17.0177 24.2196 17.9907 24.2196C18.9634 24.2196 19.9364 24.3699 20.909 24.6696C21.8817 24.9697 22.8547 28.0936 23.8274 29.1821C24.8004 30.2711 25.773 31.2021 26.7457 31.2021C27.7187 31.2021 28.6913 28.4627 29.664 28.4627C30.637 28.4627 31.6097 33.8521 32.5826 33.8521C33.5553 33.8521 34.528 30.4602 35.501 30.4602C36.4736 30.4602 37.4463 32.6232 38.4193 33.3196C39.392 34.0155 40.3649 33.8038 41.3376 34.6365C42.3103 35.4691 43.2833 36.8117 44.2559 38.3155C45.2289 39.8192 46.2016 43.6588 47.1743 43.6588C48.1472 43.6588 49.1199 42.8948 50.0926 42.8948C51.0656 42.8948 52.0382 44.3019 53.0112 45.9803C53.9839 47.6587 54.9565 51.2059 55.9295 52.9655C56.9022 54.7247 57.8749 56.5362 58.8479 56.5362C59.8205 56.5362 60.7935 52.655 61.7662 52.4934C62.7388 52.3319 63.7118 52.2511 64.6845 52.2511C65.6575 52.2511 66.6302 56.3191 67.6028 57.5241C68.5758 58.729 69.5485 59.48 70.5211 59.48C71.4941 59.48 72.4668 57.8445 73.4398 56.3904C74.4124 54.9363 75.3851 50.755 76.3581 50.755C77.3308 50.755 78.3034 54.305 79.2764 54.305C80.2491 54.305 81.2221 46.2615 82.1948 46.2615C83.1674 46.2615 84.1404 51.5408 85.1131 51.5408C86.0861 51.5408 87.0587 44.9229 88.0314 44.9229C89.0044 44.9229 89.9771 46.7019 90.9497 46.7019C91.9227 46.7019 92.8954 38.6287 93.8684 37.1538C94.841 35.6794 95.8137 34.942 96.7867 34.942C97.7593 34.942 98.732 35.9425 99.705 35.9425C100.678 35.9425 101.651 33.1138 102.623 32.0921C103.596 31.0703 104.569 30.8424 105.542 29.8126C106.515 28.7827 107.487 25.9124 108.46 25.9124C109.433 25.9124 110.406 26.2008 111.378 26.2143C112.351 26.2283 113.324 26.2351 114.297 26.2351C115.27 26.2351 116.242 23.1636 117.215 23.1636C118.188 23.1636 119.161 27.9194 120.134 29.6469C121.106 31.3745 122.079 33.5294 123.052 33.5294C124.025 33.5294 124.998 32.2283 125.97 32.2283C126.943 32.2283 127.916 34.7236 128.889 34.9501C129.862 35.1767 130.834 35.0634 131.807 35.29C132.78 35.5165 133.753 39.5218 134.725 39.5218C135.698 39.5218 136.671 38.7582 137.644 38.7582C138.616 38.7582 139.589 39.8282 140.562 41.6623C141.535 43.4959 142.508 46.6288 143.48 49.7613" stroke="#6D6D6D"/>
<path d="M0.480469 20.9249C1.45313 18.0284 2.42613 15.132 3.39879 15.0571C4.37178 14.9822 5.34444 15.0196 6.31711 14.9447C7.2901 14.8698 8.26277 12.3822 9.23543 11.6552C10.2084 10.9281 11.1811 10.5649 12.1541 10.5649C13.1267 10.5649 14.0994 12.8078 15.0724 12.8078C16.0451 12.8078 17.0177 2.79079 17.9907 2.79079C18.9634 2.79079 19.9364 3.56206 20.909 4.51249C21.8817 5.46293 22.8547 7.03976 23.8274 8.4943C24.8004 9.94838 25.773 13.2388 26.7457 13.2388C27.7187 13.2388 28.6913 9.87843 29.664 9.87843C30.637 9.87843 31.6097 17.7125 32.5826 17.7125C33.5553 17.7125 34.528 14.9276 35.501 14.9276C36.4736 14.9276 37.4463 20.4104 38.4193 21.9904C39.392 23.5708 40.3649 23.7134 41.3376 24.4093C42.3103 25.1057 43.2833 24.9956 44.2559 26.1671C45.2289 27.3392 46.2016 32.3003 47.1743 33.4037C48.1472 34.5071 49.1199 34.6606 50.0926 35.0591C51.0656 35.4571 52.0382 35.3037 53.0112 35.7929C53.9839 36.2825 54.9565 44.1617 55.9295 45.3225C56.9022 46.4828 57.8749 47.0631 58.8479 47.0631C59.8205 47.0631 60.7935 40.865 61.7662 40.865C62.7388 40.865 63.7118 43.0326 64.6845 43.7556C65.6575 44.4781 66.6302 44.4781 67.6028 45.202C68.5758 45.9259 69.5485 48.0993 70.5211 48.0993C71.4941 48.0993 72.4668 45.0756 73.4398 43.488C74.4125 41.9007 75.3851 38.9578 76.3581 38.5756C77.3308 38.1933 78.3034 38.3847 79.2764 38.0024C80.2491 37.6202 81.2221 28.4299 82.1947 28.4299C83.1674 28.4299 84.1404 31.8002 85.1131 31.8002C86.0861 31.8002 87.0587 28.8758 88.0314 27.8667C89.0044 26.8572 89.9771 27.1595 90.9497 25.7452C91.9227 24.3308 92.8954 15.0417 93.8684 15.0417C94.841 15.0417 95.8137 15.5237 96.7867 15.5237C97.7593 15.5237 98.732 13.5967 99.705 12.7541C100.678 11.9115 101.651 11.314 102.623 10.4674C103.596 9.62028 104.569 8.77139 105.542 7.67339C106.515 6.57493 107.487 4.32475 108.46 3.87752C109.433 3.43028 110.406 3.65412 111.378 3.20689C112.351 2.75965 113.324 0.799212 114.297 0.679618C115.27 0.560024 116.242 0.5 117.215 0.5C118.188 0.5 119.161 4.81351 120.134 6.24818C121.106 7.68286 122.079 8.10392 123.052 9.10897C124.025 10.114 124.998 11.3831 125.97 12.2793C126.943 13.1756 127.916 13.5249 128.889 14.4866C129.862 15.4484 130.834 16.5062 131.807 18.0492C132.78 19.5922 133.753 23.745 134.725 23.745C135.698 23.745 136.671 21.22 137.644 21.22C138.616 21.22 139.589 22.0445 140.562 23.6931C141.535 25.3417 142.508 29.8087 143.48 34.2761V49.761C142.508 46.6285 141.535 43.4956 140.562 41.662C139.589 39.8279 138.616 38.7579 137.644 38.7579C136.671 38.7579 135.698 39.5215 134.725 39.5215C133.753 39.5215 132.78 35.5162 131.807 35.2897C130.834 35.0631 129.862 35.1764 128.889 34.9498C127.916 34.7233 126.943 32.2281 125.97 32.2281C124.998 32.2281 124.025 33.5292 123.052 33.5292C122.079 33.5292 121.106 31.3742 120.134 29.6466C119.161 27.9191 118.188 23.1633 117.215 23.1633C116.242 23.1633 115.27 26.2348 114.297 26.2348C113.324 26.2348 112.351 26.2281 111.378 26.2141C110.406 26.2005 109.433 25.9122 108.46 25.9122C107.487 25.9122 106.515 28.7824 105.542 29.8123C104.569 30.8421 103.596 31.07 102.623 32.0918C101.651 33.1135 100.678 35.9422 99.705 35.9422C98.732 35.9422 97.7593 34.9417 96.7867 34.9417C95.8137 34.9417 94.841 35.6791 93.8684 37.1535C92.8954 38.6284 91.9227 46.7017 90.9497 46.7017C89.9771 46.7017 89.0044 44.9226 88.0314 44.9226C87.0587 44.9226 86.0861 51.5405 85.1131 51.5405C84.1404 51.5405 83.1674 46.2612 82.1947 46.2612C81.2221 46.2612 80.2491 54.3047 79.2764 54.3047C78.3034 54.3047 77.3308 50.7548 76.3581 50.7548C75.3851 50.7548 74.4125 54.936 73.4398 56.3901C72.4668 57.8442 71.4941 59.4797 70.5211 59.4797C69.5485 59.4797 68.5758 58.7287 67.6028 57.5238C66.6302 56.3188 65.6575 52.2508 64.6845 52.2508C63.7118 52.2508 62.7388 52.3316 61.7662 52.4932C60.7935 52.6547 59.8205 56.5359 58.8479 56.5359C57.8749 56.5359 56.9022 54.7244 55.9295 52.9652C54.9565 51.2056 53.9839 47.6584 53.0112 45.98C52.0382 44.3016 51.0656 42.8945 50.0926 42.8945C49.1199 42.8945 48.1472 43.6586 47.1743 43.6586C46.2016 43.6586 45.2289 39.8189 44.2559 38.3152C43.2833 36.8115 42.3103 35.4688 41.3376 34.6362C40.3649 33.8035 39.392 34.0152 38.4193 33.3193C37.4463 32.623 36.4736 30.4599 35.501 30.4599C34.528 30.4599 33.5553 33.8518 32.5826 33.8518C31.6097 33.8518 30.637 28.4624 29.664 28.4624C28.6913 28.4624 27.7187 31.2018 26.7457 31.2018C25.773 31.2018 24.8004 30.2708 23.8274 29.1818C22.8547 28.0933 21.8817 24.9694 20.909 24.6693C19.9364 24.3696 18.9634 24.2193 17.9907 24.2193C17.0177 24.2193 16.0451 31.0398 15.0724 32.3558C14.0994 33.6722 13.1267 33.6813 12.1541 34.3302C11.1811 34.9792 10.2084 35.8141 9.23543 36.25C8.26277 36.6864 7.2901 36.9428 6.31711 36.9487C5.34444 36.9541 4.37178 36.9514 3.39879 36.9568C2.42613 36.9626 1.45313 40.3912 0.480469 43.8201V20.9249Z" fill="#404041" fill-opacity="0.6"/>
<path d="M0.480469 20.9249C1.45313 18.0284 2.42613 15.132 3.39879 15.0571C4.37178 14.9822 5.34444 15.0196 6.31711 14.9447C7.2901 14.8698 8.26277 12.3822 9.23543 11.6552C10.2084 10.9281 11.1811 10.5649 12.1541 10.5649C13.1267 10.5649 14.0994 12.8078 15.0724 12.8078C16.0451 12.8078 17.0177 2.79079 17.9907 2.79079C18.9634 2.79079 19.9364 3.56206 20.909 4.51249C21.8817 5.46293 22.8547 7.03976 23.8274 8.4943C24.8004 9.94838 25.773 13.2388 26.7457 13.2388C27.7187 13.2388 28.6913 9.87843 29.664 9.87843C30.637 9.87843 31.6097 17.7125 32.5826 17.7125C33.5553 17.7125 34.528 14.9276 35.501 14.9276C36.4736 14.9276 37.4463 20.4104 38.4193 21.9904C39.392 23.5708 40.3649 23.7134 41.3376 24.4093C42.3103 25.1057 43.2833 24.9956 44.2559 26.1671C45.2289 27.3392 46.2016 32.3003 47.1743 33.4037C48.1472 34.5071 49.1199 34.6606 50.0926 35.0591C51.0656 35.4571 52.0382 35.3037 53.0112 35.7929C53.9839 36.2825 54.9565 44.1617 55.9295 45.3225C56.9022 46.4828 57.8749 47.0631 58.8479 47.0631C59.8205 47.0631 60.7935 40.865 61.7662 40.865C62.7388 40.865 63.7118 43.0326 64.6845 43.7556C65.6575 44.4781 66.6302 44.4781 67.6028 45.202C68.5758 45.9259 69.5485 48.0993 70.5211 48.0993C71.4941 48.0993 72.4668 45.0756 73.4398 43.488C74.4124 41.9007 75.3851 38.9578 76.3581 38.5756C77.3308 38.1933 78.3034 38.3847 79.2764 38.0024C80.2491 37.6202 81.2221 28.4299 82.1948 28.4299C83.1674 28.4299 84.1404 31.8002 85.1131 31.8002C86.0861 31.8002 87.0587 28.8758 88.0314 27.8667C89.0044 26.8572 89.9771 27.1595 90.9497 25.7452C91.9227 24.3308 92.8954 15.0417 93.8684 15.0417C94.841 15.0417 95.8137 15.5237 96.7867 15.5237C97.7593 15.5237 98.732 13.5967 99.705 12.7541C100.678 11.9115 101.651 11.314 102.623 10.4674C103.596 9.62028 104.569 8.7714 105.542 7.67339C106.515 6.57493 107.487 4.32475 108.46 3.87752C109.433 3.43028 110.406 3.65412 111.378 3.20689C112.351 2.75965 113.324 0.799212 114.297 0.679618C115.27 0.560024 116.242 0.5 117.215 0.5C118.188 0.5 119.161 4.81351 120.134 6.24819C121.106 7.68286 122.079 8.10393 123.052 9.10897C124.025 10.114 124.998 11.3831 125.97 12.2793C126.943 13.1756 127.916 13.5249 128.889 14.4866C129.862 15.4484 130.834 16.5062 131.807 18.0492C132.78 19.5922 133.753 23.745 134.725 23.745C135.698 23.745 136.671 21.22 137.644 21.22C138.616 21.22 139.589 22.0445 140.562 23.6931C141.535 25.3417 142.508 29.8087 143.48 34.2761" stroke="#2B2B2B"/>
</svg>
