<svg width="15" height="15" viewBox="0 0 15 15" fill="none" xmlns="http://www.w3.org/2000/svg">
<path d="M7.25 12.25C8.57608 12.25 9.84785 11.7232 10.7855 10.7855C11.7232 9.84785 12.25 8.57608 12.25 7.25C12.25 5.92392 11.7232 4.65215 10.7855 3.71447C9.84785 2.77678 8.57608 2.25 7.25 2.25C5.92392 2.25 4.65215 2.77678 3.71447 3.71447C2.77678 4.65215 2.25 5.92392 2.25 7.25C2.25 8.57608 2.77678 9.84785 3.71447 10.7855C4.65215 11.7232 5.92392 12.25 7.25 12.25ZM7.25 1C8.07076 1 8.88349 1.16166 9.64177 1.47575C10.4001 1.78984 11.0891 2.25022 11.6694 2.83058C12.2498 3.41095 12.7102 4.09994 13.0242 4.85823C13.3383 5.61651 13.5 6.42924 13.5 7.25C13.5 8.9076 12.8415 10.4973 11.6694 11.6694C10.4973 12.8415 8.9076 13.5 7.25 13.5C3.79375 13.5 1 10.6875 1 7.25C1 5.5924 1.65848 4.00269 2.83058 2.83058C4.00269 1.65848 5.5924 1 7.25 1ZM7.5625 4.125V7.40625L10.375 9.075L9.90625 9.84375L6.625 7.875V4.125H7.5625Z" fill="#894B00"/>
</svg>
