<svg width="209" height="86" viewBox="0 0 209 86" fill="none" xmlns="http://www.w3.org/2000/svg">
<path d="M14.9076 30.2876H4.0657C1.82028 30.2876 0 31.9148 0 33.9221V81.1712C0 83.1785 1.82028 84.8058 4.0657 84.8058H14.9076C17.153 84.8058 18.9733 83.1785 18.9733 81.1712V33.9221C18.9733 31.9148 17.153 30.2876 14.9076 30.2876Z" fill="black" fill-opacity="0.2"/>
<path d="M42.013 12.1152H31.1712C28.9257 12.1152 27.1055 13.7425 27.1055 15.7498V81.1716C27.1055 83.1789 28.9257 84.8061 31.1712 84.8061H42.013C44.2585 84.8061 46.0787 83.1789 46.0787 81.1716V15.7498C46.0787 13.7425 44.2585 12.1152 42.013 12.1152Z" fill="black" fill-opacity="0.2"/>
<path d="M69.1166 0H58.2747C56.0293 0 54.209 1.62724 54.209 3.63454V81.1715C54.209 83.1788 56.0293 84.806 58.2747 84.806H69.1166C71.362 84.806 73.1823 83.1788 73.1823 81.1715V3.63454C73.1823 1.62724 71.362 0 69.1166 0Z" fill="black" fill-opacity="0.2"/>
<path d="M96.222 15.144H85.3802C83.1347 15.144 81.3145 16.7713 81.3145 18.7786V81.1716C81.3145 83.1789 83.1347 84.8061 85.3802 84.8061H96.222C98.4675 84.8061 100.288 83.1789 100.288 81.1716V18.7786C100.288 16.7713 98.4675 15.144 96.222 15.144Z" fill="black" fill-opacity="0.2"/>
<path d="M123.523 39.9609H112.681C110.436 39.9609 108.615 41.5882 108.615 43.5955V81.7582C108.615 83.7655 110.436 85.3927 112.681 85.3927H123.523C125.768 85.3927 127.589 83.7655 127.589 81.7582V43.5955C127.589 41.5882 125.768 39.9609 123.523 39.9609Z" fill="black" fill-opacity="0.2"/>
<path d="M150.624 47.8359H139.782C137.537 47.8359 135.717 49.4632 135.717 51.4705V81.7583C135.717 83.7656 137.537 85.3929 139.782 85.3929H150.624C152.87 85.3929 154.69 83.7656 154.69 81.7583V51.4705C154.69 49.4632 152.87 47.8359 150.624 47.8359Z" fill="black" fill-opacity="0.2"/>
<path d="M177.829 68.8218H166.988C164.742 68.8218 162.922 70.449 162.922 72.4563V81.5427C162.922 83.55 164.742 85.1772 166.988 85.1772H177.829C180.075 85.1772 181.895 83.55 181.895 81.5427V72.4563C181.895 70.449 180.075 68.8218 177.829 68.8218Z" fill="black" fill-opacity="0.2"/>
<path d="M204.935 74.8789H194.093C191.848 74.8789 190.027 76.5061 190.027 78.5134V81.5422C190.027 83.5495 191.848 85.1768 194.093 85.1768H204.935C207.18 85.1768 209.001 83.5495 209.001 81.5422V78.5134C209.001 76.5061 207.18 74.8789 204.935 74.8789Z" fill="black" fill-opacity="0.2"/>
</svg>
