<svg width="173" height="86" viewBox="0 0 173 86" fill="none" xmlns="http://www.w3.org/2000/svg">
<path d="M12.3397 30.2876H3.36538C1.50673 30.2876 0 31.9148 0 33.9221V81.1712C0 83.1785 1.50673 84.8058 3.36538 84.8058H12.3397C14.1984 84.8058 15.7051 83.1785 15.7051 81.1712V33.9221C15.7051 31.9148 14.1984 30.2876 12.3397 30.2876Z" fill="#6366F1"/>
<path d="M34.7753 12.1152H25.8009C23.9423 12.1152 22.4355 13.7425 22.4355 15.7498V81.1716C22.4355 83.1789 23.9423 84.8061 25.8009 84.8061H34.7753C36.6339 84.8061 38.1407 83.1789 38.1407 81.1716V15.7498C38.1407 13.7425 36.6339 12.1152 34.7753 12.1152Z" fill="#6366F1"/>
<path d="M57.2108 0H48.2365C46.3778 0 44.8711 1.62724 44.8711 3.63454V81.1715C44.8711 83.1788 46.3778 84.806 48.2365 84.806H57.2108C59.0695 84.806 60.5762 83.1788 60.5762 81.1715V3.63454C60.5762 1.62724 59.0695 0 57.2108 0Z" fill="#6366F1"/>
<path d="M79.6483 15.144H70.674C68.8153 15.144 67.3086 16.7713 67.3086 18.7786V81.1716C67.3086 83.1789 68.8153 84.8061 70.674 84.8061H79.6483C81.507 84.8061 83.0137 83.1789 83.0137 81.1716V18.7786C83.0137 16.7713 81.507 15.144 79.6483 15.144Z" fill="#6366F1"/>
<path d="M102.246 39.9609H93.2716C91.413 39.9609 89.9062 41.5882 89.9062 43.5955V81.7582C89.9062 83.7655 91.413 85.3927 93.2716 85.3927H102.246C104.105 85.3927 105.611 83.7655 105.611 81.7582V43.5955C105.611 41.5882 104.105 39.9609 102.246 39.9609Z" fill="#6366F1"/>
<path d="M124.68 47.8359H115.705C113.847 47.8359 112.34 49.4632 112.34 51.4705V81.7583C112.34 83.7656 113.847 85.3929 115.705 85.3929H124.68C126.538 85.3929 128.045 83.7656 128.045 81.7583V51.4705C128.045 49.4632 126.538 47.8359 124.68 47.8359Z" fill="#6366F1"/>
<path d="M147.197 68.8218H138.223C136.364 68.8218 134.857 70.449 134.857 72.4563V81.5427C134.857 83.55 136.364 85.1772 138.223 85.1772H147.197C149.056 85.1772 150.563 83.55 150.563 81.5427V72.4563C150.563 70.449 149.056 68.8218 147.197 68.8218Z" fill="#6366F1"/>
<path d="M169.635 74.8789H160.66C158.802 74.8789 157.295 76.5061 157.295 78.5134V81.5422C157.295 83.5495 158.802 85.1768 160.66 85.1768H169.635C171.493 85.1768 173 83.5495 173 81.5422V78.5134C173 76.5061 171.493 74.8789 169.635 74.8789Z" fill="#6366F1"/>
</svg>
