<svg width="86" height="86" viewBox="0 0 86 86" fill="none" xmlns="http://www.w3.org/2000/svg">
<path d="M85.5 43C85.5 33.0014 81.9748 23.3229 75.5443 15.6666C69.1138 8.01016 60.1897 2.8661 50.3414 1.13896C40.4931 -0.588185 30.3512 1.21218 21.699 6.22346C13.0469 11.2347 6.43865 19.1361 3.03628 28.538C-0.366083 37.9399 -0.344677 48.2403 3.09673 57.628C6.53814 67.0157 13.1792 74.8895 21.852 79.8647C30.5249 84.84 40.6742 86.5982 50.5153 84.8302C60.3563 83.0621 69.2589 77.881 75.6576 70.198L62.5946 59.3188C58.7554 63.9286 53.4138 67.0373 47.5092 68.0981C41.6045 69.1589 35.5149 68.104 30.3112 65.1188C25.1075 62.1337 21.1229 57.4094 19.058 51.7768C16.9932 46.1442 16.9804 39.9639 19.0218 34.3228C21.0632 28.6816 25.0282 23.9408 30.2194 20.9341C35.4107 17.9273 41.4959 16.8471 47.4048 17.8834C53.3138 18.9197 58.6683 22.0061 62.5266 26.5999C66.3849 31.1938 68.5 37.0008 68.5 43H85.5Z" fill="black" fill-opacity="0.2" stroke="white"/>
<path d="M76.5871 69.0419C82.0537 61.9914 85.163 53.3995 85.4743 44.4834L68.4847 43.8901C68.2979 49.2398 66.4323 54.3949 63.1523 58.6252L76.5871 69.0419Z" fill="#3B3B3B" stroke="white"/>
</svg>
