<svg width="70" height="71" viewBox="0 0 70 71" fill="none" xmlns="http://www.w3.org/2000/svg">
<path d="M39.3745 20.785C39.3745 19.9148 39.7202 19.0802 40.3356 18.4648C40.9509 17.8495 41.7855 17.5038 42.6558 17.5038H60.1558C60.8043 17.5044 61.4381 17.6971 61.9772 18.0577C62.5163 18.4183 62.9364 18.9305 63.1845 19.5297C63.4326 20.129 63.4976 20.7883 63.3712 21.4244C63.2449 22.0605 62.9328 22.6449 62.4745 23.1038L54.2058 31.3813C55.5708 31.7138 56.8483 32.1688 57.9989 32.7769C61.2451 34.4875 63.4414 37.4275 63.4414 41.5488C63.4414 44.4057 62.4308 46.8338 60.6895 48.6669C59.0008 50.4519 56.7783 51.5238 54.5295 52.0663C50.1108 53.1294 44.7951 52.3419 40.862 49.7607C40.1894 49.2609 39.7332 48.523 39.5867 47.6979C39.4402 46.8729 39.6145 46.023 40.0739 45.3222C40.5332 44.6214 41.243 44.1226 42.058 43.9278C42.873 43.7331 43.7316 43.857 44.4583 44.2744C46.7945 45.8057 50.2333 46.3482 52.9939 45.6832C54.3326 45.3638 55.3126 44.8038 55.9251 44.1563C56.4895 43.5613 56.8789 42.7563 56.8789 41.5488C56.8789 40.2013 56.3408 39.3219 54.9364 38.5825C53.3045 37.7207 50.6489 37.1913 47.0351 37.1913C46.3866 37.1907 45.7527 36.998 45.2137 36.6374C44.6746 36.2768 44.2545 35.7645 44.0064 35.1653C43.7583 34.5661 43.6933 33.9068 43.8197 33.2707C43.946 32.6346 44.2581 32.0502 44.7164 31.5913L52.2414 24.0663H42.6558C41.7855 24.0663 40.9509 23.7206 40.3356 23.1052C39.7202 22.4899 39.3745 21.6553 39.3745 20.785ZM23.6814 45.9982C22.1501 45.7794 20.3126 46.4925 19.3808 48.5007C19.205 48.9004 18.9513 49.261 18.6344 49.5614C18.3175 49.8618 17.9438 50.096 17.5353 50.2501C17.1268 50.4043 16.6916 50.4753 16.2552 50.4591C15.8189 50.4429 15.3901 50.3398 14.9942 50.1558C14.5982 49.9718 14.2429 49.7106 13.9492 49.3875C13.6554 49.0644 13.4291 48.686 13.2835 48.2743C13.1379 47.8626 13.0759 47.4261 13.1012 46.9901C13.1265 46.5542 13.2385 46.1277 13.4308 45.7357C15.6533 40.9494 20.3826 38.8888 24.622 39.5013C28.997 40.1357 32.812 43.6357 32.812 49.2225C32.812 55.4919 28.052 58.8125 24.9808 60.9519C23.6333 61.8969 22.4826 62.6888 21.6033 63.4588H30.6245C31.4947 63.4588 32.3293 63.8045 32.9447 64.4198C33.5601 65.0352 33.9058 65.8698 33.9058 66.74C33.9058 67.6103 33.5601 68.4449 32.9447 69.0602C32.3293 69.6756 31.4947 70.0213 30.6245 70.0213H16.4058C15.5355 70.0213 14.7009 69.6756 14.0856 69.0602C13.4702 68.4449 13.1245 67.6103 13.1245 66.74C13.1245 63.7213 14.437 61.4419 16.0558 59.6963C17.5783 58.0688 19.5558 56.7388 21.087 55.6713C24.587 53.2213 26.2495 51.7163 26.2495 49.2225C26.2495 47.1532 25.0814 46.2038 23.6814 45.9982ZM24.517 0.393162C25.0404 0.673373 25.4779 1.09033 25.783 1.5996C26.0881 2.10887 26.2493 2.69137 26.2495 3.28504V24.1538H29.3601C30.2304 24.1538 31.065 24.4995 31.6803 25.1148C32.2957 25.7302 32.6414 26.5648 32.6414 27.435C32.6414 28.3053 32.2957 29.1399 31.6803 29.7552C31.065 30.3706 30.2304 30.7163 29.3601 30.7163H16.4451C15.5749 30.7163 14.7403 30.3706 14.1249 29.7552C13.5096 29.1399 13.1639 28.3053 13.1639 27.435C13.1639 26.5648 13.5096 25.7302 14.1249 25.1148C14.7403 24.4995 15.5749 24.1538 16.4451 24.1538H19.687V9.41004L18.2258 10.3857C17.5016 10.857 16.6209 11.0237 15.7746 10.8496C14.9283 10.6755 14.1849 10.1746 13.7056 9.45576C13.2263 8.73688 13.05 7.85798 13.2148 7.00984C13.3795 6.16171 13.8722 5.41279 14.5858 4.92566L21.1483 0.550662C21.6425 0.221304 22.217 0.0322907 22.8102 0.00378234C23.4035 -0.024726 23.9934 0.10834 24.517 0.388787V0.393162Z" fill="#6C6C6C"/>
</svg>
