<svg width="87" height="90" viewBox="0 0 87 90" fill="none" xmlns="http://www.w3.org/2000/svg">
<path d="M43.4992 45V4.49998C50.1977 4.49998 56.7842 6.27798 62.6287 9.66389C68.4732 13.0498 73.3801 17.9304 76.88 23.8388C80.38 29.7472 82.356 36.4858 82.619 43.41C82.882 50.3342 81.4232 57.2123 78.3821 63.3866C75.341 69.5609 70.8194 74.8247 65.2498 78.6745C59.6801 82.5244 53.2488 84.8315 46.5709 85.3751C39.893 85.9188 33.1919 84.6809 27.1087 81.7798C21.0254 78.8787 15.7635 74.4114 11.8262 68.8053L43.4992 45Z" fill="#6366F1"/>
<path d="M43.4996 44.9999L11.8266 68.8052C6.96698 61.8858 4.34961 53.5526 4.34961 44.9999C4.34961 36.4471 6.96698 28.1139 11.8266 21.1946L43.4996 44.9999Z" fill="#EC4899"/>
<path d="M43.4992 45L11.8262 21.1947C16.6858 14.2754 23.5382 9.12516 31.4012 6.48221L43.4992 45Z" fill="#14B8A6"/>
<path d="M43.5004 45L31.4023 6.48221C35.3095 5.16892 39.3921 4.5 43.5004 4.5V45Z" fill="#F59E0B"/>
</svg>
