<svg width="87" height="108" viewBox="0 0 87 108" fill="none" xmlns="http://www.w3.org/2000/svg">
<path d="M43.4996 53.9999L11.8266 77.8052C6.96698 70.8858 4.34961 62.5526 4.34961 53.9999C4.34961 45.4471 6.96698 37.1139 11.8266 30.1946L43.4996 53.9999Z" fill="#6C6C6C"/>
<path d="M43.4992 54L11.8262 30.1947C16.6858 23.2754 23.5382 18.1252 31.4012 15.4822L43.4992 54Z" fill="#A7A7A7"/>
<path d="M43.5004 54L31.4023 15.4822C35.3095 14.1689 39.3921 13.5 43.5004 13.5V54Z" fill="#CFCFCF"/>
<path d="M43.4992 54V13.5C50.1977 13.5 56.7842 15.278 62.6287 18.6639C68.4732 22.0498 73.3801 26.9304 76.88 32.8388C80.38 38.7472 82.356 45.4858 82.619 52.41C82.882 59.3342 81.4232 66.2123 78.3821 72.3866C75.341 78.5609 70.8194 83.8247 65.2498 87.6745C59.6801 91.5244 53.2488 93.8315 46.5709 94.3751C39.893 94.9188 33.1919 93.6809 27.1087 90.7798C21.0254 87.8787 15.7635 83.4114 11.8262 77.8053L43.4992 54Z" fill="#5B5B5B"/>
</svg>
