<svg width="198" height="209" viewBox="50 60 80 60" fill="none" xmlns="http://www.w3.org/2000/svg">
<path d="M107.104 85.2254C108.402 85.2254 109.455 84.0052 109.455 82.5001C109.455 80.995 108.402 79.7749 107.104 79.7749C105.806 79.7749 104.754 80.995 104.754 82.5001C104.754 84.0052 105.806 85.2254 107.104 85.2254Z" fill="#FFB62E" fill-opacity="0.78" stroke="white"/>
<path d="M73.3817 104.593C74.6798 104.593 75.7321 103.372 75.7321 101.867C75.7321 100.362 74.6798 99.1421 73.3817 99.1421C72.0836 99.1421 71.0312 100.362 71.0312 101.867C71.0312 103.372 72.0836 104.593 73.3817 104.593Z" fill="#7F81F2" stroke="white"/>
<path d="M110.741 81.4461C112.039 81.4461 113.091 80.2259 113.091 78.7208C113.091 77.2157 112.039 75.9956 110.741 75.9956C109.443 75.9956 108.391 77.2157 108.391 78.7208C108.391 80.2259 109.443 81.4461 110.741 81.4461Z" fill="#FFB62E" fill-opacity="0.78" stroke="white"/>
<path d="M58.5028 93.7281C59.8009 93.7281 60.8532 92.5079 60.8532 91.0028C60.8532 89.4977 59.8009 88.2776 58.5028 88.2776C57.2047 88.2776 56.1523 89.4977 56.1523 91.0028C56.1523 92.5079 57.2047 93.7281 58.5028 93.7281Z" fill="#FFB62E" fill-opacity="0.78" stroke="white"/>
<path d="M115.04 91.8384C116.338 91.8384 117.39 90.6183 117.39 89.1132C117.39 87.6081 116.338 86.3879 115.04 86.3879C113.742 86.3879 112.689 87.6081 112.689 89.1132C112.689 90.6183 113.742 91.8384 115.04 91.8384Z" fill="#FFB62E" fill-opacity="0.78" stroke="white"/>
<path d="M121.651 70.1092C122.949 70.1092 124.002 68.889 124.002 67.3839C124.002 65.8788 122.949 64.6587 121.651 64.6587C120.353 64.6587 119.301 65.8788 119.301 67.3839C119.301 68.889 120.353 70.1092 121.651 70.1092Z" fill="#FF6767" stroke="white"/>
<path d="M129.587 77.4312C130.885 77.4312 131.937 76.2111 131.937 74.7059C131.937 73.2008 130.885 71.9807 129.587 71.9807C128.289 71.9807 127.236 73.2008 127.236 74.7059C127.236 76.2111 128.289 77.4312 129.587 77.4312Z" fill="#FFB62E" fill-opacity="0.78" stroke="white"/>
<path d="M114.048 88.2959C115.346 88.2959 116.398 87.0758 116.398 85.5707C116.398 84.0656 115.346 82.8455 114.048 82.8455C112.75 82.8455 111.697 84.0656 111.697 85.5707C111.697 87.0758 112.75 88.2959 114.048 88.2959Z" fill="#FFB62E" fill-opacity="0.78" stroke="white"/>
<path d="M60.1551 109.553C61.4532 109.553 62.5055 108.332 62.5055 106.827C62.5055 105.322 61.4532 104.102 60.1551 104.102C58.857 104.102 57.8047 105.322 57.8047 106.827C57.8047 108.332 58.857 109.553 60.1551 109.553Z" fill="#7F81F2" stroke="white"/>
<path d="M123.636 80.5015C124.934 80.5015 125.986 79.2814 125.986 77.7763C125.986 76.2712 124.934 75.051 123.636 75.051C122.337 75.051 121.285 76.2712 121.285 77.7763C121.285 79.2814 122.337 80.5015 123.636 80.5015Z" fill="#FFB62E" fill-opacity="0.78" stroke="white"/>
<path d="M39.6571 107.191C40.9552 107.191 42.0075 105.971 42.0075 104.465C42.0075 102.96 40.9552 101.74 39.6571 101.74C38.359 101.74 37.3066 102.96 37.3066 104.465C37.3066 105.971 38.359 107.191 39.6571 107.191Z" fill="#7F81F2" stroke="white"/>
<path d="M103.468 95.1451C104.766 95.1451 105.818 93.9249 105.818 92.4198C105.818 90.9147 104.766 89.6946 103.468 89.6946C102.17 89.6946 101.117 90.9147 101.117 92.4198C101.117 93.9249 102.17 95.1451 103.468 95.1451Z" fill="#FFB62E" fill-opacity="0.78" stroke="white"/>
<path d="M72.7196 105.537C74.0177 105.537 75.07 104.317 75.07 102.812C75.07 101.307 74.0177 100.087 72.7196 100.087C71.4215 100.087 70.3691 101.307 70.3691 102.812C70.3691 104.317 71.4215 105.537 72.7196 105.537Z" fill="#7F81F2" stroke="white"/>
<path d="M67.7586 99.6328C69.0567 99.6328 70.1091 98.4127 70.1091 96.9076C70.1091 95.4025 69.0567 94.1824 67.7586 94.1824C66.4605 94.1824 65.4082 95.4025 65.4082 96.9076C65.4082 98.4127 66.4605 99.6328 67.7586 99.6328Z" fill="#7F81F2" stroke="white"/>
<path d="M162.649 67.0388C163.947 67.0388 165 65.8187 165 64.3136C165 62.8085 163.947 61.5884 162.649 61.5884C161.351 61.5884 160.299 62.8085 160.299 64.3136C160.299 65.8187 161.351 67.0388 162.649 67.0388Z" fill="#FF6767" stroke="white"/>
<path d="M132.563 81.9185C133.861 81.9185 134.914 80.6984 134.914 79.1933C134.914 77.6881 133.861 76.468 132.563 76.468C131.265 76.468 130.213 77.6881 130.213 79.1933C130.213 80.6984 131.265 81.9185 132.563 81.9185Z" fill="#FFB62E" fill-opacity="0.78" stroke="white"/>
<path d="M55.1961 102.939C56.4942 102.939 57.5466 101.719 57.5466 100.214C57.5466 98.7087 56.4942 97.4885 55.1961 97.4885C53.898 97.4885 52.8457 98.7087 52.8457 100.214C52.8457 101.719 53.898 102.939 55.1961 102.939Z" fill="#7F81F2" stroke="white"/>
<path d="M52.5516 119C53.8497 119 54.902 117.78 54.902 116.275C54.902 114.77 53.8497 113.55 52.5516 113.55C51.2535 113.55 50.2012 114.77 50.2012 116.275C50.2012 117.78 51.2535 119 52.5516 119Z" fill="#7F81F2" stroke="white"/>
<path d="M122.313 80.2652C123.611 80.2652 124.664 79.045 124.664 77.5399C124.664 76.0348 123.611 74.8147 122.313 74.8147C121.015 74.8147 119.963 76.0348 119.963 77.5399C119.963 79.045 121.015 80.2652 122.313 80.2652Z" fill="#FFB62E" fill-opacity="0.78" stroke="white"/>
<path d="M125.95 65.6219C127.248 65.6219 128.3 64.4017 128.3 62.8966C128.3 61.3915 127.248 60.1714 125.95 60.1714C124.652 60.1714 123.6 61.3915 123.6 62.8966C123.6 64.4017 124.652 65.6219 125.95 65.6219Z" fill="#FF6767" stroke="white"/>
<path d="M159.345 51.4505C160.643 51.4505 161.695 50.2303 161.695 48.7252C161.695 47.2201 160.643 46 159.345 46C158.046 46 156.994 47.2201 156.994 48.7252C156.994 50.2303 158.046 51.4505 159.345 51.4505Z" fill="#FF6767" stroke="white"/>
<path d="M79.0008 105.773C80.2989 105.773 81.3512 104.553 81.3512 103.048C81.3512 101.543 80.2989 100.323 79.0008 100.323C77.7027 100.323 76.6504 101.543 76.6504 103.048C76.6504 104.553 77.7027 105.773 79.0008 105.773Z" fill="#7F81F2" stroke="white"/>
<path d="M142.481 68.2198C143.779 68.2198 144.832 66.9996 144.832 65.4945C144.832 63.9894 143.779 62.7693 142.481 62.7693C141.183 62.7693 140.131 63.9894 140.131 65.4945C140.131 66.9996 141.183 68.2198 142.481 68.2198Z" fill="#FF6767" stroke="white"/>
<path d="M88.2586 82.3909C89.5567 82.3909 90.6091 81.1708 90.6091 79.6657C90.6091 78.1606 89.5567 76.9404 88.2586 76.9404C86.9605 76.9404 85.9082 78.1606 85.9082 79.6657C85.9082 81.1708 86.9605 82.3909 88.2586 82.3909Z" fill="#FFB62E" fill-opacity="0.78" stroke="white"/>
<path d="M97.5164 95.1451C98.8145 95.1451 99.8669 93.9249 99.8669 92.4198C99.8669 90.9147 98.8145 89.6946 97.5164 89.6946C96.2183 89.6946 95.166 90.9147 95.166 92.4198C95.166 93.9249 96.2183 95.1451 97.5164 95.1451Z" fill="#FFB62E" fill-opacity="0.78" stroke="white"/>
<path d="M36.3504 106.01C37.6485 106.01 38.7008 104.789 38.7008 103.284C38.7008 101.779 37.6485 100.559 36.3504 100.559C35.0523 100.559 34 101.779 34 103.284C34 104.789 35.0523 106.01 36.3504 106.01Z" fill="#7F81F2" stroke="white"/>
<path d="M129.587 80.2652C130.885 80.2652 131.937 79.045 131.937 77.5399C131.937 76.0348 130.885 74.8147 129.587 74.8147C128.289 74.8147 127.236 76.0348 127.236 77.5399C127.236 79.045 128.289 80.2652 129.587 80.2652Z" fill="#FFB62E" fill-opacity="0.78" stroke="white"/>
<path d="M156.036 69.4007C157.334 69.4007 158.386 68.1805 158.386 66.6754C158.386 65.1703 157.334 63.9502 156.036 63.9502C154.738 63.9502 153.686 65.1703 153.686 66.6754C153.686 68.1805 154.738 69.4007 156.036 69.4007Z" fill="#FF6767" stroke="white"/>
<path d="M76.3563 92.0745C77.6544 92.0745 78.7067 90.8544 78.7067 89.3493C78.7067 87.8442 77.6544 86.624 76.3563 86.624C75.0582 86.624 74.0059 87.8442 74.0059 89.3493C74.0059 90.8544 75.0582 92.0745 76.3563 92.0745Z" fill="#FFB62E" fill-opacity="0.78" stroke="white"/>
<path d="M139.175 77.4312C140.473 77.4312 141.525 76.2111 141.525 74.7059C141.525 73.2008 140.473 71.9807 139.175 71.9807C137.877 71.9807 136.824 73.2008 136.824 74.7059C136.824 76.2111 137.877 77.4312 139.175 77.4312Z" fill="#FFB62E" fill-opacity="0.78" stroke="white"/>
</svg>
