<svg width="132" height="79" viewBox="25 5 90 60" fill="none" xmlns="http://www.w3.org/2000/svg">
<path d="M73.6043 42.4119C74.9024 42.4119 75.9548 41.1082 75.9548 39.5C75.9548 37.8918 74.9024 36.5881 73.6043 36.5881C72.3062 36.5881 71.2539 37.8918 71.2539 39.5C71.2539 41.1082 72.3062 42.4119 73.6043 42.4119Z" fill="#888888" stroke="white"/>
<path d="M39.8817 63.1058C41.1798 63.1058 42.2321 61.8021 42.2321 60.1939C42.2321 58.5857 41.1798 57.282 39.8817 57.282C38.5836 57.282 37.5312 58.5857 37.5312 60.1939C37.5312 61.8021 38.5836 63.1058 39.8817 63.1058Z" fill="#C6C6C6" stroke="white"/>
<path d="M77.241 38.3741C78.5392 38.3741 79.5915 37.0704 79.5915 35.4622C79.5915 33.854 78.5392 32.5503 77.241 32.5503C75.9429 32.5503 74.8906 33.854 74.8906 35.4622C74.8906 37.0704 75.9429 38.3741 77.241 38.3741Z" fill="#888888" stroke="white"/>
<path d="M25.0028 51.4971C26.3009 51.4971 27.3532 50.1934 27.3532 48.5852C27.3532 46.977 26.3009 45.6733 25.0028 45.6733C23.7047 45.6733 22.6523 46.977 22.6523 48.5852C22.6523 50.1934 23.7047 51.4971 25.0028 51.4971Z" fill="#888888" stroke="white"/>
<path d="M81.5399 49.4781C82.838 49.4781 83.8903 48.1744 83.8903 46.5662C83.8903 44.958 82.838 43.6543 81.5399 43.6543C80.2418 43.6543 79.1895 44.958 79.1895 46.5662C79.1895 48.1744 80.2418 49.4781 81.5399 49.4781Z" fill="#888888" stroke="white"/>
<path d="M88.1512 26.2606C89.4493 26.2606 90.5016 24.9569 90.5016 23.3487C90.5016 21.7405 89.4493 20.4368 88.1512 20.4368C86.8531 20.4368 85.8008 21.7405 85.8008 23.3487C85.8008 24.9569 86.8531 26.2606 88.1512 26.2606Z" fill="#232323" stroke="white"/>
<path d="M96.0868 34.0838C97.3849 34.0838 98.4372 32.7801 98.4372 31.1719C98.4372 29.5637 97.3849 28.26 96.0868 28.26C94.7886 28.26 93.7363 29.5637 93.7363 31.1719C93.7363 32.7801 94.7886 34.0838 96.0868 34.0838Z" fill="#888888" stroke="white"/>
<path d="M80.5477 45.6927C81.8458 45.6927 82.8981 44.389 82.8981 42.7808C82.8981 41.1726 81.8458 39.8689 80.5477 39.8689C79.2496 39.8689 78.1973 41.1726 78.1973 42.7808C78.1973 44.389 79.2496 45.6927 80.5477 45.6927Z" fill="#888888" stroke="white"/>
<path d="M26.6551 68.4053C27.9532 68.4053 29.0055 67.1016 29.0055 65.4934C29.0055 63.8852 27.9532 62.5815 26.6551 62.5815C25.357 62.5815 24.3047 63.8852 24.3047 65.4934C24.3047 67.1016 25.357 68.4053 26.6551 68.4053Z" fill="#C6C6C6" stroke="white"/>
<path d="M90.1356 37.3646C91.4337 37.3646 92.486 36.0609 92.486 34.4527C92.486 32.8445 91.4337 31.5408 90.1356 31.5408C88.8375 31.5408 87.7852 32.8445 87.7852 34.4527C87.7852 36.0609 88.8375 37.3646 90.1356 37.3646Z" fill="#888888" stroke="white"/>
<path d="M6.15706 65.8819C7.45517 65.8819 8.50749 64.5782 8.50749 62.97C8.50749 61.3618 7.45517 60.0581 6.15706 60.0581C4.85896 60.0581 3.80664 61.3618 3.80664 62.97C3.80664 64.5782 4.85896 65.8819 6.15706 65.8819Z" fill="#C6C6C6" stroke="white"/>
<path d="M69.9676 53.0113C71.2657 53.0113 72.318 51.7076 72.318 50.0994C72.318 48.4912 71.2657 47.1875 69.9676 47.1875C68.6695 47.1875 67.6172 48.4912 67.6172 50.0994C67.6172 51.7076 68.6695 53.0113 69.9676 53.0113Z" fill="#888888" stroke="white"/>
<path d="M39.2196 64.1153C40.5177 64.1153 41.57 62.8116 41.57 61.2034C41.57 59.5952 40.5177 58.2915 39.2196 58.2915C37.9215 58.2915 36.8691 59.5952 36.8691 61.2034C36.8691 62.8116 37.9215 64.1153 39.2196 64.1153Z" fill="#C6C6C6" stroke="white"/>
<path d="M34.2586 57.8062C35.5567 57.8062 36.6091 56.5025 36.6091 54.8943C36.6091 53.2861 35.5567 51.9824 34.2586 51.9824C32.9605 51.9824 31.9082 53.2861 31.9082 54.8943C31.9082 56.5025 32.9605 57.8062 34.2586 57.8062Z" fill="#C6C6C6" stroke="white"/>
<path d="M129.149 22.9798C130.447 22.9798 131.5 21.6761 131.5 20.0679C131.5 18.4597 130.447 17.156 129.149 17.156C127.851 17.156 126.799 18.4597 126.799 20.0679C126.799 21.6761 127.851 22.9798 129.149 22.9798Z" fill="#232323" stroke="white"/>
<path d="M99.0633 38.8787C100.361 38.8787 101.414 37.575 101.414 35.9668C101.414 34.3586 100.361 33.0549 99.0633 33.0549C97.7652 33.0549 96.7129 34.3586 96.7129 35.9668C96.7129 37.575 97.7652 38.8787 99.0633 38.8787Z" fill="#888888" stroke="white"/>
<path d="M21.6961 61.3392C22.9942 61.3392 24.0466 60.0355 24.0466 58.4273C24.0466 56.8191 22.9942 55.5154 21.6961 55.5154C20.398 55.5154 19.3457 56.8191 19.3457 58.4273C19.3457 60.0355 20.398 61.3392 21.6961 61.3392Z" fill="#C6C6C6" stroke="white"/>
<path d="M19.0516 78.5001C20.3497 78.5001 21.402 77.1964 21.402 75.5882C21.402 73.98 20.3497 72.6763 19.0516 72.6763C17.7535 72.6763 16.7012 73.98 16.7012 75.5882C16.7012 77.1964 17.7535 78.5001 19.0516 78.5001Z" fill="#C6C6C6" stroke="white"/>
<path d="M88.8133 37.1124C90.1114 37.1124 91.1637 35.8087 91.1637 34.2005C91.1637 32.5923 90.1114 31.2886 88.8133 31.2886C87.5152 31.2886 86.4629 32.5923 86.4629 34.2005C86.4629 35.8087 87.5152 37.1124 88.8133 37.1124Z" fill="#888888" stroke="white"/>
<path d="M92.45 21.4656C93.7481 21.4656 94.8005 20.1619 94.8005 18.5537C94.8005 16.9455 93.7481 15.6418 92.45 15.6418C91.1519 15.6418 90.0996 16.9455 90.0996 18.5537C90.0996 20.1619 91.1519 21.4656 92.45 21.4656Z" fill="#232323" stroke="white"/>
<path d="M125.845 6.3238C127.143 6.3238 128.195 5.0201 128.195 3.4119C128.195 1.8037 127.143 0.5 125.845 0.5C124.546 0.5 123.494 1.8037 123.494 3.4119C123.494 5.0201 124.546 6.3238 125.845 6.3238Z" fill="#232323" stroke="white"/>
<path d="M45.5008 64.3677C46.7989 64.3677 47.8512 63.064 47.8512 61.4558C47.8512 59.8476 46.7989 58.5439 45.5008 58.5439C44.2027 58.5439 43.1504 59.8476 43.1504 61.4558C43.1504 63.064 44.2027 64.3677 45.5008 64.3677Z" fill="#C6C6C6" stroke="white"/>
<path d="M108.981 24.2418C110.279 24.2418 111.332 22.9381 111.332 21.3299C111.332 19.7217 110.279 18.418 108.981 18.418C107.683 18.418 106.631 19.7217 106.631 21.3299C106.631 22.9381 107.683 24.2418 108.981 24.2418Z" fill="#232323" stroke="white"/>
<path d="M54.7586 39.3836C56.0567 39.3836 57.1091 38.0799 57.1091 36.4717C57.1091 34.8635 56.0567 33.5598 54.7586 33.5598C53.4605 33.5598 52.4082 34.8635 52.4082 36.4717C52.4082 38.0799 53.4605 39.3836 54.7586 39.3836Z" fill="#888888" stroke="white"/>
<path d="M64.0164 53.0113C65.3145 53.0113 66.3669 51.7076 66.3669 50.0994C66.3669 48.4912 65.3145 47.1875 64.0164 47.1875C62.7183 47.1875 61.666 48.4912 61.666 50.0994C61.666 51.7076 62.7183 53.0113 64.0164 53.0113Z" fill="#888888" stroke="white"/>
<path d="M2.85042 64.6199C4.14853 64.6199 5.20085 63.3162 5.20085 61.708C5.20085 60.0998 4.14853 58.7961 2.85042 58.7961C1.55232 58.7961 0.5 60.0998 0.5 61.708C0.5 63.3162 1.55232 64.6199 2.85042 64.6199Z" fill="#C6C6C6" stroke="white"/>
<path d="M96.0868 37.1124C97.3849 37.1124 98.4372 35.8087 98.4372 34.2005C98.4372 32.5923 97.3849 31.2886 96.0868 31.2886C94.7886 31.2886 93.7363 32.5923 93.7363 34.2005C93.7363 35.8087 94.7886 37.1124 96.0868 37.1124Z" fill="#888888" stroke="white"/>
<path d="M122.536 25.5035C123.834 25.5035 124.886 24.1998 124.886 22.5916C124.886 20.9834 123.834 19.6797 122.536 19.6797C121.238 19.6797 120.186 20.9834 120.186 22.5916C120.186 24.1998 121.238 25.5035 122.536 25.5035Z" fill="#232323" stroke="white"/>
<path d="M42.8563 49.7305C44.1544 49.7305 45.2067 48.4268 45.2067 46.8186C45.2067 45.2104 44.1544 43.9067 42.8563 43.9067C41.5582 43.9067 40.5059 45.2104 40.5059 46.8186C40.5059 48.4268 41.5582 49.7305 42.8563 49.7305Z" fill="#888888" stroke="white"/>
<path d="M105.675 34.0838C106.973 34.0838 108.025 32.7801 108.025 31.1719C108.025 29.5637 106.973 28.26 105.675 28.26C104.377 28.26 103.324 29.5637 103.324 31.1719C103.324 32.7801 104.377 34.0838 105.675 34.0838Z" fill="#888888" stroke="white"/>
</svg>
