<svg width="25" height="25" viewBox="0 0 25 25" fill="none" xmlns="http://www.w3.org/2000/svg">
<path opacity="0.2" d="M17.1875 12.5C17.1875 13.4271 16.9126 14.3334 16.3975 15.1042C15.8824 15.8751 15.1504 16.4759 14.2938 16.8307C13.4373 17.1855 12.4948 17.2783 11.5855 17.0974C10.6762 16.9166 9.841 16.4701 9.18544 15.8146C8.52988 15.159 8.08344 14.3238 7.90257 13.4145C7.7217 12.5052 7.81453 11.5627 8.16932 10.7062C8.5241 9.84964 9.12491 9.11756 9.89577 8.60249C10.6666 8.08742 11.5729 7.8125 12.5 7.8125C13.7432 7.8125 14.9355 8.30636 15.8146 9.18544C16.6936 10.0645 17.1875 11.2568 17.1875 12.5Z" fill="black"/>
<path d="M13.6719 12.5C13.6719 12.7318 13.6031 12.9583 13.4744 13.1511C13.3456 13.3438 13.1626 13.494 12.9485 13.5827C12.7343 13.6714 12.4987 13.6946 12.2714 13.6494C12.0441 13.6041 11.8352 13.4925 11.6714 13.3286C11.5075 13.1648 11.3959 12.9559 11.3506 12.7286C11.3054 12.5013 11.3286 12.2657 11.4173 12.0515C11.506 11.8374 11.6562 11.6544 11.8489 11.5256C12.0417 11.3969 12.2682 11.3281 12.5 11.3281C12.8108 11.3281 13.1089 11.4516 13.3286 11.6714C13.5484 11.8911 13.6719 12.1892 13.6719 12.5Z" fill="black"/>
</svg>
