<svg width="18" height="19" viewBox="0 0 18 19" fill="none" xmlns="http://www.w3.org/2000/svg">
<path d="M9 4.625C9.09946 4.625 9.19484 4.66451 9.26517 4.73484C9.33549 4.80516 9.375 4.90054 9.375 5V9.125H13.5C13.5995 9.125 13.6948 9.16451 13.7652 9.23483C13.8355 9.30516 13.875 9.40054 13.875 9.5C13.875 9.59946 13.8355 9.69484 13.7652 9.76517C13.6948 9.83549 13.5995 9.875 13.5 9.875H9.375V14C9.375 14.0995 9.33549 14.1948 9.26517 14.2652C9.19484 14.3355 9.09946 14.375 9 14.375C8.90054 14.375 8.80516 14.3355 8.73483 14.2652C8.66451 14.1948 8.625 14.0995 8.625 14V9.875H4.5C4.40054 9.875 4.30516 9.83549 4.23484 9.76517C4.16451 9.69484 4.125 9.59946 4.125 9.5C4.125 9.40054 4.16451 9.30516 4.23484 9.23483C4.30516 9.16451 4.40054 9.125 4.5 9.125H8.625V5C8.625 4.90054 8.66451 4.80516 8.73483 4.73484C8.80516 4.66451 8.90054 4.625 9 4.625Z" fill="#374151"/>
</svg>
